<mxfile host="app.diagrams.net" modified="2023-02-25T01:21:12.690Z" agent="5.0 (Windows)" etag="RH6BndU86ZgtzOrqdYL7" version="20.8.23" type="github">
  <diagram name="Page-1" id="SDChVsISQB4CHhTa9BSL">
    <mxGraphModel dx="452" dy="390" grid="1" gridSize="10" guides="1" tooltips="1" connect="1" arrows="1" fold="1" page="1" pageScale="1" pageWidth="850" pageHeight="1100" math="0" shadow="0">
      <root>
        <mxCell id="0" />
        <mxCell id="1" parent="0" />
        <mxCell id="BdziZfPDJ_LPjfBwggMZ-1" value="" style="rounded=0;whiteSpace=wrap;html=1;fillColor=#dae8fc;strokeColor=#6c8ebf;" vertex="1" parent="1">
          <mxGeometry x="150" y="280" width="10" height="10" as="geometry" />
        </mxCell>
        <mxCell id="BdziZfPDJ_LPjfBwggMZ-2" value="" style="rounded=0;whiteSpace=wrap;html=1;fillColor=#dae8fc;strokeColor=#6c8ebf;" vertex="1" parent="1">
          <mxGeometry x="160" y="280" width="10" height="10" as="geometry" />
        </mxCell>
        <mxCell id="BdziZfPDJ_LPjfBwggMZ-3" value="" style="rounded=0;whiteSpace=wrap;html=1;fillColor=#dae8fc;strokeColor=#6c8ebf;" vertex="1" parent="1">
          <mxGeometry x="170" y="280" width="10" height="10" as="geometry" />
        </mxCell>
        <mxCell id="BdziZfPDJ_LPjfBwggMZ-4" value="" style="rounded=0;whiteSpace=wrap;html=1;fillColor=#dae8fc;strokeColor=#6c8ebf;" vertex="1" parent="1">
          <mxGeometry x="180" y="280" width="10" height="10" as="geometry" />
        </mxCell>
        <mxCell id="BdziZfPDJ_LPjfBwggMZ-5" value="" style="rounded=0;whiteSpace=wrap;html=1;fillColor=#dae8fc;strokeColor=#6c8ebf;" vertex="1" parent="1">
          <mxGeometry x="190" y="280" width="10" height="10" as="geometry" />
        </mxCell>
        <mxCell id="BdziZfPDJ_LPjfBwggMZ-6" value="" style="rounded=0;whiteSpace=wrap;html=1;fillColor=#dae8fc;strokeColor=#6c8ebf;" vertex="1" parent="1">
          <mxGeometry x="200" y="280" width="10" height="10" as="geometry" />
        </mxCell>
        <mxCell id="BdziZfPDJ_LPjfBwggMZ-7" value="" style="rounded=0;whiteSpace=wrap;html=1;fillColor=#dae8fc;strokeColor=#6c8ebf;" vertex="1" parent="1">
          <mxGeometry x="210" y="280" width="10" height="10" as="geometry" />
        </mxCell>
        <mxCell id="BdziZfPDJ_LPjfBwggMZ-8" value="" style="rounded=0;whiteSpace=wrap;html=1;fillColor=#dae8fc;strokeColor=#6c8ebf;" vertex="1" parent="1">
          <mxGeometry x="220" y="280" width="10" height="10" as="geometry" />
        </mxCell>
        <mxCell id="BdziZfPDJ_LPjfBwggMZ-9" value="" style="rounded=0;whiteSpace=wrap;html=1;fillColor=#dae8fc;strokeColor=#6c8ebf;" vertex="1" parent="1">
          <mxGeometry x="150" y="290" width="10" height="10" as="geometry" />
        </mxCell>
        <mxCell id="BdziZfPDJ_LPjfBwggMZ-10" value="" style="rounded=0;whiteSpace=wrap;html=1;fillColor=#dae8fc;strokeColor=#6c8ebf;" vertex="1" parent="1">
          <mxGeometry x="160" y="290" width="10" height="10" as="geometry" />
        </mxCell>
        <mxCell id="BdziZfPDJ_LPjfBwggMZ-11" value="" style="rounded=0;whiteSpace=wrap;html=1;fillColor=#dae8fc;strokeColor=#6c8ebf;" vertex="1" parent="1">
          <mxGeometry x="170" y="290" width="10" height="10" as="geometry" />
        </mxCell>
        <mxCell id="BdziZfPDJ_LPjfBwggMZ-12" value="" style="rounded=0;whiteSpace=wrap;html=1;fillColor=#dae8fc;strokeColor=#6c8ebf;" vertex="1" parent="1">
          <mxGeometry x="180" y="290" width="10" height="10" as="geometry" />
        </mxCell>
        <mxCell id="BdziZfPDJ_LPjfBwggMZ-13" value="" style="rounded=0;whiteSpace=wrap;html=1;fillColor=#dae8fc;strokeColor=#6c8ebf;" vertex="1" parent="1">
          <mxGeometry x="190" y="290" width="10" height="10" as="geometry" />
        </mxCell>
        <mxCell id="BdziZfPDJ_LPjfBwggMZ-14" value="" style="rounded=0;whiteSpace=wrap;html=1;fillColor=#dae8fc;strokeColor=#6c8ebf;" vertex="1" parent="1">
          <mxGeometry x="200" y="290" width="10" height="10" as="geometry" />
        </mxCell>
        <mxCell id="BdziZfPDJ_LPjfBwggMZ-15" value="" style="rounded=0;whiteSpace=wrap;html=1;fillColor=#dae8fc;strokeColor=#6c8ebf;" vertex="1" parent="1">
          <mxGeometry x="210" y="290" width="10" height="10" as="geometry" />
        </mxCell>
        <mxCell id="BdziZfPDJ_LPjfBwggMZ-16" value="" style="rounded=0;whiteSpace=wrap;html=1;fillColor=#dae8fc;strokeColor=#6c8ebf;" vertex="1" parent="1">
          <mxGeometry x="220" y="290" width="10" height="10" as="geometry" />
        </mxCell>
        <mxCell id="BdziZfPDJ_LPjfBwggMZ-17" value="" style="rounded=0;whiteSpace=wrap;html=1;fillColor=#dae8fc;strokeColor=#6c8ebf;" vertex="1" parent="1">
          <mxGeometry x="150" y="300" width="10" height="10" as="geometry" />
        </mxCell>
        <mxCell id="BdziZfPDJ_LPjfBwggMZ-18" value="" style="rounded=0;whiteSpace=wrap;html=1;fillColor=#dae8fc;strokeColor=#6c8ebf;" vertex="1" parent="1">
          <mxGeometry x="160" y="300" width="10" height="10" as="geometry" />
        </mxCell>
        <mxCell id="BdziZfPDJ_LPjfBwggMZ-19" value="" style="rounded=0;whiteSpace=wrap;html=1;fillColor=#dae8fc;strokeColor=#6c8ebf;" vertex="1" parent="1">
          <mxGeometry x="170" y="300" width="10" height="10" as="geometry" />
        </mxCell>
        <mxCell id="BdziZfPDJ_LPjfBwggMZ-20" value="" style="rounded=0;whiteSpace=wrap;html=1;fillColor=#dae8fc;strokeColor=#6c8ebf;" vertex="1" parent="1">
          <mxGeometry x="180" y="300" width="10" height="10" as="geometry" />
        </mxCell>
        <mxCell id="BdziZfPDJ_LPjfBwggMZ-21" value="" style="rounded=0;whiteSpace=wrap;html=1;fillColor=#dae8fc;strokeColor=#6c8ebf;" vertex="1" parent="1">
          <mxGeometry x="190" y="300" width="10" height="10" as="geometry" />
        </mxCell>
        <mxCell id="BdziZfPDJ_LPjfBwggMZ-22" value="" style="rounded=0;whiteSpace=wrap;html=1;fillColor=#dae8fc;strokeColor=#6c8ebf;" vertex="1" parent="1">
          <mxGeometry x="200" y="300" width="10" height="10" as="geometry" />
        </mxCell>
        <mxCell id="BdziZfPDJ_LPjfBwggMZ-23" value="" style="rounded=0;whiteSpace=wrap;html=1;fillColor=#dae8fc;strokeColor=#6c8ebf;" vertex="1" parent="1">
          <mxGeometry x="210" y="300" width="10" height="10" as="geometry" />
        </mxCell>
        <mxCell id="BdziZfPDJ_LPjfBwggMZ-24" value="" style="rounded=0;whiteSpace=wrap;html=1;fillColor=#dae8fc;strokeColor=#6c8ebf;" vertex="1" parent="1">
          <mxGeometry x="220" y="300" width="10" height="10" as="geometry" />
        </mxCell>
        <mxCell id="BdziZfPDJ_LPjfBwggMZ-25" value="" style="rounded=0;whiteSpace=wrap;html=1;fillColor=#dae8fc;strokeColor=#6c8ebf;" vertex="1" parent="1">
          <mxGeometry x="150" y="310" width="10" height="10" as="geometry" />
        </mxCell>
        <mxCell id="BdziZfPDJ_LPjfBwggMZ-26" value="" style="rounded=0;whiteSpace=wrap;html=1;fillColor=#dae8fc;strokeColor=#6c8ebf;" vertex="1" parent="1">
          <mxGeometry x="160" y="310" width="10" height="10" as="geometry" />
        </mxCell>
        <mxCell id="BdziZfPDJ_LPjfBwggMZ-27" value="" style="rounded=0;whiteSpace=wrap;html=1;fillColor=#dae8fc;strokeColor=#6c8ebf;" vertex="1" parent="1">
          <mxGeometry x="170" y="310" width="10" height="10" as="geometry" />
        </mxCell>
        <mxCell id="BdziZfPDJ_LPjfBwggMZ-28" value="" style="rounded=0;whiteSpace=wrap;html=1;fillColor=#dae8fc;strokeColor=#6c8ebf;" vertex="1" parent="1">
          <mxGeometry x="180" y="310" width="10" height="10" as="geometry" />
        </mxCell>
        <mxCell id="BdziZfPDJ_LPjfBwggMZ-29" value="" style="rounded=0;whiteSpace=wrap;html=1;fillColor=#dae8fc;strokeColor=#6c8ebf;" vertex="1" parent="1">
          <mxGeometry x="190" y="310" width="10" height="10" as="geometry" />
        </mxCell>
        <mxCell id="BdziZfPDJ_LPjfBwggMZ-30" value="" style="rounded=0;whiteSpace=wrap;html=1;fillColor=#dae8fc;strokeColor=#6c8ebf;" vertex="1" parent="1">
          <mxGeometry x="200" y="310" width="10" height="10" as="geometry" />
        </mxCell>
        <mxCell id="BdziZfPDJ_LPjfBwggMZ-31" value="" style="rounded=0;whiteSpace=wrap;html=1;fillColor=#dae8fc;strokeColor=#6c8ebf;" vertex="1" parent="1">
          <mxGeometry x="210" y="310" width="10" height="10" as="geometry" />
        </mxCell>
        <mxCell id="BdziZfPDJ_LPjfBwggMZ-32" value="" style="rounded=0;whiteSpace=wrap;html=1;fillColor=#dae8fc;strokeColor=#6c8ebf;" vertex="1" parent="1">
          <mxGeometry x="220" y="310" width="10" height="10" as="geometry" />
        </mxCell>
        <mxCell id="BdziZfPDJ_LPjfBwggMZ-33" value="" style="rounded=0;whiteSpace=wrap;html=1;fillColor=#dae8fc;strokeColor=#6c8ebf;" vertex="1" parent="1">
          <mxGeometry x="150" y="320" width="10" height="10" as="geometry" />
        </mxCell>
        <mxCell id="BdziZfPDJ_LPjfBwggMZ-34" value="" style="rounded=0;whiteSpace=wrap;html=1;fillColor=#dae8fc;strokeColor=#6c8ebf;" vertex="1" parent="1">
          <mxGeometry x="160" y="320" width="10" height="10" as="geometry" />
        </mxCell>
        <mxCell id="BdziZfPDJ_LPjfBwggMZ-35" value="" style="rounded=0;whiteSpace=wrap;html=1;fillColor=#dae8fc;strokeColor=#6c8ebf;" vertex="1" parent="1">
          <mxGeometry x="170" y="320" width="10" height="10" as="geometry" />
        </mxCell>
        <mxCell id="BdziZfPDJ_LPjfBwggMZ-36" value="" style="rounded=0;whiteSpace=wrap;html=1;fillColor=#dae8fc;strokeColor=#6c8ebf;" vertex="1" parent="1">
          <mxGeometry x="180" y="320" width="10" height="10" as="geometry" />
        </mxCell>
        <mxCell id="BdziZfPDJ_LPjfBwggMZ-37" value="" style="rounded=0;whiteSpace=wrap;html=1;fillColor=#dae8fc;strokeColor=#6c8ebf;" vertex="1" parent="1">
          <mxGeometry x="190" y="320" width="10" height="10" as="geometry" />
        </mxCell>
        <mxCell id="BdziZfPDJ_LPjfBwggMZ-38" value="" style="rounded=0;whiteSpace=wrap;html=1;fillColor=#dae8fc;strokeColor=#6c8ebf;" vertex="1" parent="1">
          <mxGeometry x="200" y="320" width="10" height="10" as="geometry" />
        </mxCell>
        <mxCell id="BdziZfPDJ_LPjfBwggMZ-39" value="" style="rounded=0;whiteSpace=wrap;html=1;fillColor=#dae8fc;strokeColor=#6c8ebf;" vertex="1" parent="1">
          <mxGeometry x="210" y="320" width="10" height="10" as="geometry" />
        </mxCell>
        <mxCell id="BdziZfPDJ_LPjfBwggMZ-40" value="" style="rounded=0;whiteSpace=wrap;html=1;fillColor=#dae8fc;strokeColor=#6c8ebf;" vertex="1" parent="1">
          <mxGeometry x="220" y="320" width="10" height="10" as="geometry" />
        </mxCell>
        <mxCell id="BdziZfPDJ_LPjfBwggMZ-41" value="" style="rounded=0;whiteSpace=wrap;html=1;fillColor=#dae8fc;strokeColor=#6c8ebf;" vertex="1" parent="1">
          <mxGeometry x="150" y="330" width="10" height="10" as="geometry" />
        </mxCell>
        <mxCell id="BdziZfPDJ_LPjfBwggMZ-42" value="" style="rounded=0;whiteSpace=wrap;html=1;fillColor=#dae8fc;strokeColor=#6c8ebf;" vertex="1" parent="1">
          <mxGeometry x="160" y="330" width="10" height="10" as="geometry" />
        </mxCell>
        <mxCell id="BdziZfPDJ_LPjfBwggMZ-43" value="" style="rounded=0;whiteSpace=wrap;html=1;fillColor=#dae8fc;strokeColor=#6c8ebf;" vertex="1" parent="1">
          <mxGeometry x="170" y="330" width="10" height="10" as="geometry" />
        </mxCell>
        <mxCell id="BdziZfPDJ_LPjfBwggMZ-44" value="" style="rounded=0;whiteSpace=wrap;html=1;fillColor=#dae8fc;strokeColor=#6c8ebf;" vertex="1" parent="1">
          <mxGeometry x="180" y="330" width="10" height="10" as="geometry" />
        </mxCell>
        <mxCell id="BdziZfPDJ_LPjfBwggMZ-45" value="" style="rounded=0;whiteSpace=wrap;html=1;fillColor=#dae8fc;strokeColor=#6c8ebf;" vertex="1" parent="1">
          <mxGeometry x="190" y="330" width="10" height="10" as="geometry" />
        </mxCell>
        <mxCell id="BdziZfPDJ_LPjfBwggMZ-46" value="" style="rounded=0;whiteSpace=wrap;html=1;fillColor=#dae8fc;strokeColor=#6c8ebf;" vertex="1" parent="1">
          <mxGeometry x="200" y="330" width="10" height="10" as="geometry" />
        </mxCell>
        <mxCell id="BdziZfPDJ_LPjfBwggMZ-47" value="" style="rounded=0;whiteSpace=wrap;html=1;fillColor=#dae8fc;strokeColor=#6c8ebf;" vertex="1" parent="1">
          <mxGeometry x="210" y="330" width="10" height="10" as="geometry" />
        </mxCell>
        <mxCell id="BdziZfPDJ_LPjfBwggMZ-48" value="" style="rounded=0;whiteSpace=wrap;html=1;fillColor=#dae8fc;strokeColor=#6c8ebf;" vertex="1" parent="1">
          <mxGeometry x="220" y="330" width="10" height="10" as="geometry" />
        </mxCell>
        <mxCell id="BdziZfPDJ_LPjfBwggMZ-49" value="" style="rounded=0;whiteSpace=wrap;html=1;fillColor=#dae8fc;strokeColor=#6c8ebf;" vertex="1" parent="1">
          <mxGeometry x="150" y="340" width="10" height="10" as="geometry" />
        </mxCell>
        <mxCell id="BdziZfPDJ_LPjfBwggMZ-50" value="" style="rounded=0;whiteSpace=wrap;html=1;fillColor=#dae8fc;strokeColor=#6c8ebf;" vertex="1" parent="1">
          <mxGeometry x="160" y="340" width="10" height="10" as="geometry" />
        </mxCell>
        <mxCell id="BdziZfPDJ_LPjfBwggMZ-51" value="" style="rounded=0;whiteSpace=wrap;html=1;fillColor=#dae8fc;strokeColor=#6c8ebf;" vertex="1" parent="1">
          <mxGeometry x="170" y="340" width="10" height="10" as="geometry" />
        </mxCell>
        <mxCell id="BdziZfPDJ_LPjfBwggMZ-52" value="" style="rounded=0;whiteSpace=wrap;html=1;fillColor=#dae8fc;strokeColor=#6c8ebf;" vertex="1" parent="1">
          <mxGeometry x="180" y="340" width="10" height="10" as="geometry" />
        </mxCell>
        <mxCell id="BdziZfPDJ_LPjfBwggMZ-53" value="" style="rounded=0;whiteSpace=wrap;html=1;fillColor=#dae8fc;strokeColor=#6c8ebf;" vertex="1" parent="1">
          <mxGeometry x="190" y="340" width="10" height="10" as="geometry" />
        </mxCell>
        <mxCell id="BdziZfPDJ_LPjfBwggMZ-54" value="" style="rounded=0;whiteSpace=wrap;html=1;fillColor=#dae8fc;strokeColor=#6c8ebf;" vertex="1" parent="1">
          <mxGeometry x="200" y="340" width="10" height="10" as="geometry" />
        </mxCell>
        <mxCell id="BdziZfPDJ_LPjfBwggMZ-55" value="" style="rounded=0;whiteSpace=wrap;html=1;fillColor=#dae8fc;strokeColor=#6c8ebf;" vertex="1" parent="1">
          <mxGeometry x="210" y="340" width="10" height="10" as="geometry" />
        </mxCell>
        <mxCell id="BdziZfPDJ_LPjfBwggMZ-56" value="" style="rounded=0;whiteSpace=wrap;html=1;fillColor=#dae8fc;strokeColor=#6c8ebf;" vertex="1" parent="1">
          <mxGeometry x="220" y="340" width="10" height="10" as="geometry" />
        </mxCell>
        <mxCell id="BdziZfPDJ_LPjfBwggMZ-57" value="" style="rounded=0;whiteSpace=wrap;html=1;fillColor=#dae8fc;strokeColor=#6c8ebf;" vertex="1" parent="1">
          <mxGeometry x="150" y="350" width="10" height="10" as="geometry" />
        </mxCell>
        <mxCell id="BdziZfPDJ_LPjfBwggMZ-58" value="" style="rounded=0;whiteSpace=wrap;html=1;fillColor=#dae8fc;strokeColor=#6c8ebf;" vertex="1" parent="1">
          <mxGeometry x="160" y="350" width="10" height="10" as="geometry" />
        </mxCell>
        <mxCell id="BdziZfPDJ_LPjfBwggMZ-59" value="" style="rounded=0;whiteSpace=wrap;html=1;fillColor=#dae8fc;strokeColor=#6c8ebf;" vertex="1" parent="1">
          <mxGeometry x="170" y="350" width="10" height="10" as="geometry" />
        </mxCell>
        <mxCell id="BdziZfPDJ_LPjfBwggMZ-60" value="" style="rounded=0;whiteSpace=wrap;html=1;fillColor=#dae8fc;strokeColor=#6c8ebf;" vertex="1" parent="1">
          <mxGeometry x="180" y="350" width="10" height="10" as="geometry" />
        </mxCell>
        <mxCell id="BdziZfPDJ_LPjfBwggMZ-61" value="" style="rounded=0;whiteSpace=wrap;html=1;fillColor=#dae8fc;strokeColor=#6c8ebf;" vertex="1" parent="1">
          <mxGeometry x="190" y="350" width="10" height="10" as="geometry" />
        </mxCell>
        <mxCell id="BdziZfPDJ_LPjfBwggMZ-62" value="" style="rounded=0;whiteSpace=wrap;html=1;fillColor=#dae8fc;strokeColor=#6c8ebf;" vertex="1" parent="1">
          <mxGeometry x="200" y="350" width="10" height="10" as="geometry" />
        </mxCell>
        <mxCell id="BdziZfPDJ_LPjfBwggMZ-63" value="" style="rounded=0;whiteSpace=wrap;html=1;fillColor=#dae8fc;strokeColor=#6c8ebf;" vertex="1" parent="1">
          <mxGeometry x="210" y="350" width="10" height="10" as="geometry" />
        </mxCell>
        <mxCell id="BdziZfPDJ_LPjfBwggMZ-64" value="" style="rounded=0;whiteSpace=wrap;html=1;fillColor=#dae8fc;strokeColor=#6c8ebf;" vertex="1" parent="1">
          <mxGeometry x="220" y="350" width="10" height="10" as="geometry" />
        </mxCell>
        <mxCell id="BdziZfPDJ_LPjfBwggMZ-65" value="" style="rounded=0;whiteSpace=wrap;html=1;fillColor=#d5e8d4;strokeColor=#82b366;" vertex="1" parent="1">
          <mxGeometry x="480" y="280" width="10" height="10" as="geometry" />
        </mxCell>
        <mxCell id="BdziZfPDJ_LPjfBwggMZ-66" value="" style="rounded=0;whiteSpace=wrap;html=1;fillColor=#d5e8d4;strokeColor=#82b366;" vertex="1" parent="1">
          <mxGeometry x="490" y="280" width="10" height="10" as="geometry" />
        </mxCell>
        <mxCell id="BdziZfPDJ_LPjfBwggMZ-67" value="" style="rounded=0;whiteSpace=wrap;html=1;fillColor=#d5e8d4;strokeColor=#82b366;" vertex="1" parent="1">
          <mxGeometry x="500" y="280" width="10" height="10" as="geometry" />
        </mxCell>
        <mxCell id="BdziZfPDJ_LPjfBwggMZ-68" value="" style="rounded=0;whiteSpace=wrap;html=1;fillColor=#d5e8d4;strokeColor=#82b366;" vertex="1" parent="1">
          <mxGeometry x="510" y="280" width="10" height="10" as="geometry" />
        </mxCell>
        <mxCell id="BdziZfPDJ_LPjfBwggMZ-69" value="" style="rounded=0;whiteSpace=wrap;html=1;fillColor=#d5e8d4;strokeColor=#82b366;" vertex="1" parent="1">
          <mxGeometry x="520" y="280" width="10" height="10" as="geometry" />
        </mxCell>
        <mxCell id="BdziZfPDJ_LPjfBwggMZ-70" value="" style="rounded=0;whiteSpace=wrap;html=1;fillColor=#d5e8d4;strokeColor=#82b366;" vertex="1" parent="1">
          <mxGeometry x="530" y="280" width="10" height="10" as="geometry" />
        </mxCell>
        <mxCell id="BdziZfPDJ_LPjfBwggMZ-71" value="" style="rounded=0;whiteSpace=wrap;html=1;fillColor=#d5e8d4;strokeColor=#82b366;" vertex="1" parent="1">
          <mxGeometry x="540" y="280" width="10" height="10" as="geometry" />
        </mxCell>
        <mxCell id="BdziZfPDJ_LPjfBwggMZ-72" value="" style="rounded=0;whiteSpace=wrap;html=1;fillColor=#d5e8d4;strokeColor=#82b366;" vertex="1" parent="1">
          <mxGeometry x="550" y="280" width="10" height="10" as="geometry" />
        </mxCell>
        <mxCell id="BdziZfPDJ_LPjfBwggMZ-73" value="" style="rounded=0;whiteSpace=wrap;html=1;fillColor=#d5e8d4;strokeColor=#82b366;" vertex="1" parent="1">
          <mxGeometry x="480" y="290" width="10" height="10" as="geometry" />
        </mxCell>
        <mxCell id="BdziZfPDJ_LPjfBwggMZ-74" value="" style="rounded=0;whiteSpace=wrap;html=1;fillColor=#d5e8d4;strokeColor=#82b366;" vertex="1" parent="1">
          <mxGeometry x="490" y="290" width="10" height="10" as="geometry" />
        </mxCell>
        <mxCell id="BdziZfPDJ_LPjfBwggMZ-75" value="" style="rounded=0;whiteSpace=wrap;html=1;fillColor=#d5e8d4;strokeColor=#82b366;" vertex="1" parent="1">
          <mxGeometry x="500" y="290" width="10" height="10" as="geometry" />
        </mxCell>
        <mxCell id="BdziZfPDJ_LPjfBwggMZ-76" value="" style="rounded=0;whiteSpace=wrap;html=1;fillColor=#d5e8d4;strokeColor=#82b366;" vertex="1" parent="1">
          <mxGeometry x="510" y="290" width="10" height="10" as="geometry" />
        </mxCell>
        <mxCell id="BdziZfPDJ_LPjfBwggMZ-77" value="" style="rounded=0;whiteSpace=wrap;html=1;fillColor=#d5e8d4;strokeColor=#82b366;" vertex="1" parent="1">
          <mxGeometry x="520" y="290" width="10" height="10" as="geometry" />
        </mxCell>
        <mxCell id="BdziZfPDJ_LPjfBwggMZ-78" value="" style="rounded=0;whiteSpace=wrap;html=1;fillColor=#d5e8d4;strokeColor=#82b366;" vertex="1" parent="1">
          <mxGeometry x="530" y="290" width="10" height="10" as="geometry" />
        </mxCell>
        <mxCell id="BdziZfPDJ_LPjfBwggMZ-79" value="" style="rounded=0;whiteSpace=wrap;html=1;fillColor=#d5e8d4;strokeColor=#82b366;" vertex="1" parent="1">
          <mxGeometry x="540" y="290" width="10" height="10" as="geometry" />
        </mxCell>
        <mxCell id="BdziZfPDJ_LPjfBwggMZ-80" value="" style="rounded=0;whiteSpace=wrap;html=1;fillColor=#d5e8d4;strokeColor=#82b366;" vertex="1" parent="1">
          <mxGeometry x="550" y="290" width="10" height="10" as="geometry" />
        </mxCell>
        <mxCell id="BdziZfPDJ_LPjfBwggMZ-81" value="" style="rounded=0;whiteSpace=wrap;html=1;fillColor=#d5e8d4;strokeColor=#82b366;" vertex="1" parent="1">
          <mxGeometry x="480" y="300" width="10" height="10" as="geometry" />
        </mxCell>
        <mxCell id="BdziZfPDJ_LPjfBwggMZ-82" value="" style="rounded=0;whiteSpace=wrap;html=1;fillColor=#d5e8d4;strokeColor=#82b366;" vertex="1" parent="1">
          <mxGeometry x="490" y="300" width="10" height="10" as="geometry" />
        </mxCell>
        <mxCell id="BdziZfPDJ_LPjfBwggMZ-83" value="" style="rounded=0;whiteSpace=wrap;html=1;fillColor=#d5e8d4;strokeColor=#82b366;" vertex="1" parent="1">
          <mxGeometry x="500" y="300" width="10" height="10" as="geometry" />
        </mxCell>
        <mxCell id="BdziZfPDJ_LPjfBwggMZ-84" value="" style="rounded=0;whiteSpace=wrap;html=1;fillColor=#d5e8d4;strokeColor=#82b366;" vertex="1" parent="1">
          <mxGeometry x="510" y="300" width="10" height="10" as="geometry" />
        </mxCell>
        <mxCell id="BdziZfPDJ_LPjfBwggMZ-85" value="" style="rounded=0;whiteSpace=wrap;html=1;fillColor=#d5e8d4;strokeColor=#82b366;" vertex="1" parent="1">
          <mxGeometry x="520" y="300" width="10" height="10" as="geometry" />
        </mxCell>
        <mxCell id="BdziZfPDJ_LPjfBwggMZ-86" value="" style="rounded=0;whiteSpace=wrap;html=1;fillColor=#d5e8d4;strokeColor=#82b366;" vertex="1" parent="1">
          <mxGeometry x="530" y="300" width="10" height="10" as="geometry" />
        </mxCell>
        <mxCell id="BdziZfPDJ_LPjfBwggMZ-87" value="" style="rounded=0;whiteSpace=wrap;html=1;fillColor=#d5e8d4;strokeColor=#82b366;" vertex="1" parent="1">
          <mxGeometry x="540" y="300" width="10" height="10" as="geometry" />
        </mxCell>
        <mxCell id="BdziZfPDJ_LPjfBwggMZ-88" value="" style="rounded=0;whiteSpace=wrap;html=1;fillColor=#d5e8d4;strokeColor=#82b366;" vertex="1" parent="1">
          <mxGeometry x="550" y="300" width="10" height="10" as="geometry" />
        </mxCell>
        <mxCell id="BdziZfPDJ_LPjfBwggMZ-89" value="" style="rounded=0;whiteSpace=wrap;html=1;fillColor=#d5e8d4;strokeColor=#82b366;" vertex="1" parent="1">
          <mxGeometry x="480" y="310" width="10" height="10" as="geometry" />
        </mxCell>
        <mxCell id="BdziZfPDJ_LPjfBwggMZ-90" value="" style="rounded=0;whiteSpace=wrap;html=1;fillColor=#d5e8d4;strokeColor=#82b366;" vertex="1" parent="1">
          <mxGeometry x="490" y="310" width="10" height="10" as="geometry" />
        </mxCell>
        <mxCell id="BdziZfPDJ_LPjfBwggMZ-91" value="" style="rounded=0;whiteSpace=wrap;html=1;fillColor=#d5e8d4;strokeColor=#82b366;" vertex="1" parent="1">
          <mxGeometry x="500" y="310" width="10" height="10" as="geometry" />
        </mxCell>
        <mxCell id="BdziZfPDJ_LPjfBwggMZ-92" value="" style="rounded=0;whiteSpace=wrap;html=1;fillColor=#d5e8d4;strokeColor=#82b366;" vertex="1" parent="1">
          <mxGeometry x="510" y="310" width="10" height="10" as="geometry" />
        </mxCell>
        <mxCell id="BdziZfPDJ_LPjfBwggMZ-93" value="" style="rounded=0;whiteSpace=wrap;html=1;fillColor=#d5e8d4;strokeColor=#82b366;" vertex="1" parent="1">
          <mxGeometry x="520" y="310" width="10" height="10" as="geometry" />
        </mxCell>
        <mxCell id="BdziZfPDJ_LPjfBwggMZ-94" value="" style="rounded=0;whiteSpace=wrap;html=1;fillColor=#d5e8d4;strokeColor=#82b366;" vertex="1" parent="1">
          <mxGeometry x="530" y="310" width="10" height="10" as="geometry" />
        </mxCell>
        <mxCell id="BdziZfPDJ_LPjfBwggMZ-95" value="" style="rounded=0;whiteSpace=wrap;html=1;fillColor=#d5e8d4;strokeColor=#82b366;" vertex="1" parent="1">
          <mxGeometry x="540" y="310" width="10" height="10" as="geometry" />
        </mxCell>
        <mxCell id="BdziZfPDJ_LPjfBwggMZ-96" value="" style="rounded=0;whiteSpace=wrap;html=1;fillColor=#d5e8d4;strokeColor=#82b366;" vertex="1" parent="1">
          <mxGeometry x="550" y="310" width="10" height="10" as="geometry" />
        </mxCell>
        <mxCell id="BdziZfPDJ_LPjfBwggMZ-97" value="" style="rounded=0;whiteSpace=wrap;html=1;fillColor=#d5e8d4;strokeColor=#82b366;" vertex="1" parent="1">
          <mxGeometry x="480" y="320" width="10" height="10" as="geometry" />
        </mxCell>
        <mxCell id="BdziZfPDJ_LPjfBwggMZ-98" value="" style="rounded=0;whiteSpace=wrap;html=1;fillColor=#d5e8d4;strokeColor=#82b366;" vertex="1" parent="1">
          <mxGeometry x="490" y="320" width="10" height="10" as="geometry" />
        </mxCell>
        <mxCell id="BdziZfPDJ_LPjfBwggMZ-99" value="" style="rounded=0;whiteSpace=wrap;html=1;fillColor=#d5e8d4;strokeColor=#82b366;" vertex="1" parent="1">
          <mxGeometry x="500" y="320" width="10" height="10" as="geometry" />
        </mxCell>
        <mxCell id="BdziZfPDJ_LPjfBwggMZ-100" value="" style="rounded=0;whiteSpace=wrap;html=1;fillColor=#d5e8d4;strokeColor=#82b366;" vertex="1" parent="1">
          <mxGeometry x="510" y="320" width="10" height="10" as="geometry" />
        </mxCell>
        <mxCell id="BdziZfPDJ_LPjfBwggMZ-101" value="" style="rounded=0;whiteSpace=wrap;html=1;fillColor=#d5e8d4;strokeColor=#82b366;" vertex="1" parent="1">
          <mxGeometry x="520" y="320" width="10" height="10" as="geometry" />
        </mxCell>
        <mxCell id="BdziZfPDJ_LPjfBwggMZ-102" value="" style="rounded=0;whiteSpace=wrap;html=1;fillColor=#d5e8d4;strokeColor=#82b366;" vertex="1" parent="1">
          <mxGeometry x="530" y="320" width="10" height="10" as="geometry" />
        </mxCell>
        <mxCell id="BdziZfPDJ_LPjfBwggMZ-103" value="" style="rounded=0;whiteSpace=wrap;html=1;fillColor=#d5e8d4;strokeColor=#82b366;" vertex="1" parent="1">
          <mxGeometry x="540" y="320" width="10" height="10" as="geometry" />
        </mxCell>
        <mxCell id="BdziZfPDJ_LPjfBwggMZ-104" value="" style="rounded=0;whiteSpace=wrap;html=1;fillColor=#d5e8d4;strokeColor=#82b366;" vertex="1" parent="1">
          <mxGeometry x="550" y="320" width="10" height="10" as="geometry" />
        </mxCell>
        <mxCell id="BdziZfPDJ_LPjfBwggMZ-105" value="" style="rounded=0;whiteSpace=wrap;html=1;fillColor=#d5e8d4;strokeColor=#82b366;" vertex="1" parent="1">
          <mxGeometry x="480" y="330" width="10" height="10" as="geometry" />
        </mxCell>
        <mxCell id="BdziZfPDJ_LPjfBwggMZ-106" value="" style="rounded=0;whiteSpace=wrap;html=1;fillColor=#d5e8d4;strokeColor=#82b366;" vertex="1" parent="1">
          <mxGeometry x="490" y="330" width="10" height="10" as="geometry" />
        </mxCell>
        <mxCell id="BdziZfPDJ_LPjfBwggMZ-107" value="" style="rounded=0;whiteSpace=wrap;html=1;fillColor=#d5e8d4;strokeColor=#82b366;" vertex="1" parent="1">
          <mxGeometry x="500" y="330" width="10" height="10" as="geometry" />
        </mxCell>
        <mxCell id="BdziZfPDJ_LPjfBwggMZ-108" value="" style="rounded=0;whiteSpace=wrap;html=1;fillColor=#d5e8d4;strokeColor=#82b366;" vertex="1" parent="1">
          <mxGeometry x="510" y="330" width="10" height="10" as="geometry" />
        </mxCell>
        <mxCell id="BdziZfPDJ_LPjfBwggMZ-109" value="" style="rounded=0;whiteSpace=wrap;html=1;fillColor=#d5e8d4;strokeColor=#82b366;" vertex="1" parent="1">
          <mxGeometry x="520" y="330" width="10" height="10" as="geometry" />
        </mxCell>
        <mxCell id="BdziZfPDJ_LPjfBwggMZ-110" value="" style="rounded=0;whiteSpace=wrap;html=1;fillColor=#d5e8d4;strokeColor=#82b366;" vertex="1" parent="1">
          <mxGeometry x="530" y="330" width="10" height="10" as="geometry" />
        </mxCell>
        <mxCell id="BdziZfPDJ_LPjfBwggMZ-111" value="" style="rounded=0;whiteSpace=wrap;html=1;fillColor=#d5e8d4;strokeColor=#82b366;" vertex="1" parent="1">
          <mxGeometry x="540" y="330" width="10" height="10" as="geometry" />
        </mxCell>
        <mxCell id="BdziZfPDJ_LPjfBwggMZ-112" value="" style="rounded=0;whiteSpace=wrap;html=1;fillColor=#d5e8d4;strokeColor=#82b366;" vertex="1" parent="1">
          <mxGeometry x="550" y="330" width="10" height="10" as="geometry" />
        </mxCell>
        <mxCell id="BdziZfPDJ_LPjfBwggMZ-113" value="" style="rounded=0;whiteSpace=wrap;html=1;fillColor=#d5e8d4;strokeColor=#82b366;" vertex="1" parent="1">
          <mxGeometry x="480" y="340" width="10" height="10" as="geometry" />
        </mxCell>
        <mxCell id="BdziZfPDJ_LPjfBwggMZ-114" value="" style="rounded=0;whiteSpace=wrap;html=1;fillColor=#d5e8d4;strokeColor=#82b366;" vertex="1" parent="1">
          <mxGeometry x="490" y="340" width="10" height="10" as="geometry" />
        </mxCell>
        <mxCell id="BdziZfPDJ_LPjfBwggMZ-115" value="" style="rounded=0;whiteSpace=wrap;html=1;fillColor=#d5e8d4;strokeColor=#82b366;" vertex="1" parent="1">
          <mxGeometry x="500" y="340" width="10" height="10" as="geometry" />
        </mxCell>
        <mxCell id="BdziZfPDJ_LPjfBwggMZ-116" value="" style="rounded=0;whiteSpace=wrap;html=1;fillColor=#d5e8d4;strokeColor=#82b366;" vertex="1" parent="1">
          <mxGeometry x="510" y="340" width="10" height="10" as="geometry" />
        </mxCell>
        <mxCell id="BdziZfPDJ_LPjfBwggMZ-117" value="" style="rounded=0;whiteSpace=wrap;html=1;fillColor=#d5e8d4;strokeColor=#82b366;" vertex="1" parent="1">
          <mxGeometry x="520" y="340" width="10" height="10" as="geometry" />
        </mxCell>
        <mxCell id="BdziZfPDJ_LPjfBwggMZ-118" value="" style="rounded=0;whiteSpace=wrap;html=1;fillColor=#d5e8d4;strokeColor=#82b366;" vertex="1" parent="1">
          <mxGeometry x="530" y="340" width="10" height="10" as="geometry" />
        </mxCell>
        <mxCell id="BdziZfPDJ_LPjfBwggMZ-119" value="" style="rounded=0;whiteSpace=wrap;html=1;fillColor=#d5e8d4;strokeColor=#82b366;" vertex="1" parent="1">
          <mxGeometry x="540" y="340" width="10" height="10" as="geometry" />
        </mxCell>
        <mxCell id="BdziZfPDJ_LPjfBwggMZ-120" value="" style="rounded=0;whiteSpace=wrap;html=1;fillColor=#d5e8d4;strokeColor=#82b366;" vertex="1" parent="1">
          <mxGeometry x="550" y="340" width="10" height="10" as="geometry" />
        </mxCell>
        <mxCell id="BdziZfPDJ_LPjfBwggMZ-121" value="" style="rounded=0;whiteSpace=wrap;html=1;fillColor=#d5e8d4;strokeColor=#82b366;" vertex="1" parent="1">
          <mxGeometry x="480" y="350" width="10" height="10" as="geometry" />
        </mxCell>
        <mxCell id="BdziZfPDJ_LPjfBwggMZ-122" value="" style="rounded=0;whiteSpace=wrap;html=1;fillColor=#d5e8d4;strokeColor=#82b366;" vertex="1" parent="1">
          <mxGeometry x="490" y="350" width="10" height="10" as="geometry" />
        </mxCell>
        <mxCell id="BdziZfPDJ_LPjfBwggMZ-123" value="" style="rounded=0;whiteSpace=wrap;html=1;fillColor=#d5e8d4;strokeColor=#82b366;" vertex="1" parent="1">
          <mxGeometry x="500" y="350" width="10" height="10" as="geometry" />
        </mxCell>
        <mxCell id="BdziZfPDJ_LPjfBwggMZ-124" value="" style="rounded=0;whiteSpace=wrap;html=1;fillColor=#d5e8d4;strokeColor=#82b366;" vertex="1" parent="1">
          <mxGeometry x="510" y="350" width="10" height="10" as="geometry" />
        </mxCell>
        <mxCell id="BdziZfPDJ_LPjfBwggMZ-125" value="" style="rounded=0;whiteSpace=wrap;html=1;fillColor=#d5e8d4;strokeColor=#82b366;" vertex="1" parent="1">
          <mxGeometry x="520" y="350" width="10" height="10" as="geometry" />
        </mxCell>
        <mxCell id="BdziZfPDJ_LPjfBwggMZ-126" value="" style="rounded=0;whiteSpace=wrap;html=1;fillColor=#d5e8d4;strokeColor=#82b366;" vertex="1" parent="1">
          <mxGeometry x="530" y="350" width="10" height="10" as="geometry" />
        </mxCell>
        <mxCell id="BdziZfPDJ_LPjfBwggMZ-127" value="" style="rounded=0;whiteSpace=wrap;html=1;fillColor=#d5e8d4;strokeColor=#82b366;" vertex="1" parent="1">
          <mxGeometry x="540" y="350" width="10" height="10" as="geometry" />
        </mxCell>
        <mxCell id="BdziZfPDJ_LPjfBwggMZ-128" value="" style="rounded=0;whiteSpace=wrap;html=1;fillColor=#d5e8d4;strokeColor=#82b366;" vertex="1" parent="1">
          <mxGeometry x="550" y="350" width="10" height="10" as="geometry" />
        </mxCell>
        <mxCell id="BdziZfPDJ_LPjfBwggMZ-129" value="" style="rounded=0;whiteSpace=wrap;html=1;fillColor=#f8cecc;strokeColor=#b85450;" vertex="1" parent="1">
          <mxGeometry x="480" y="160" width="10" height="10" as="geometry" />
        </mxCell>
        <mxCell id="BdziZfPDJ_LPjfBwggMZ-130" value="" style="rounded=0;whiteSpace=wrap;html=1;fillColor=#f8cecc;strokeColor=#b85450;" vertex="1" parent="1">
          <mxGeometry x="490" y="160" width="10" height="10" as="geometry" />
        </mxCell>
        <mxCell id="BdziZfPDJ_LPjfBwggMZ-131" value="" style="rounded=0;whiteSpace=wrap;html=1;fillColor=#f8cecc;strokeColor=#b85450;" vertex="1" parent="1">
          <mxGeometry x="500" y="160" width="10" height="10" as="geometry" />
        </mxCell>
        <mxCell id="BdziZfPDJ_LPjfBwggMZ-132" value="" style="rounded=0;whiteSpace=wrap;html=1;fillColor=#f8cecc;strokeColor=#b85450;" vertex="1" parent="1">
          <mxGeometry x="510" y="160" width="10" height="10" as="geometry" />
        </mxCell>
        <mxCell id="BdziZfPDJ_LPjfBwggMZ-133" value="" style="rounded=0;whiteSpace=wrap;html=1;fillColor=#f8cecc;strokeColor=#b85450;" vertex="1" parent="1">
          <mxGeometry x="520" y="160" width="10" height="10" as="geometry" />
        </mxCell>
        <mxCell id="BdziZfPDJ_LPjfBwggMZ-134" value="" style="rounded=0;whiteSpace=wrap;html=1;fillColor=#f8cecc;strokeColor=#b85450;" vertex="1" parent="1">
          <mxGeometry x="530" y="160" width="10" height="10" as="geometry" />
        </mxCell>
        <mxCell id="BdziZfPDJ_LPjfBwggMZ-135" value="" style="rounded=0;whiteSpace=wrap;html=1;fillColor=#f8cecc;strokeColor=#b85450;" vertex="1" parent="1">
          <mxGeometry x="540" y="160" width="10" height="10" as="geometry" />
        </mxCell>
        <mxCell id="BdziZfPDJ_LPjfBwggMZ-136" value="" style="rounded=0;whiteSpace=wrap;html=1;fillColor=#f8cecc;strokeColor=#b85450;" vertex="1" parent="1">
          <mxGeometry x="550" y="160" width="10" height="10" as="geometry" />
        </mxCell>
        <mxCell id="BdziZfPDJ_LPjfBwggMZ-137" value="" style="rounded=0;whiteSpace=wrap;html=1;fillColor=#f8cecc;strokeColor=#b85450;" vertex="1" parent="1">
          <mxGeometry x="480" y="170" width="10" height="10" as="geometry" />
        </mxCell>
        <mxCell id="BdziZfPDJ_LPjfBwggMZ-138" value="" style="rounded=0;whiteSpace=wrap;html=1;fillColor=#f8cecc;strokeColor=#b85450;" vertex="1" parent="1">
          <mxGeometry x="490" y="170" width="10" height="10" as="geometry" />
        </mxCell>
        <mxCell id="BdziZfPDJ_LPjfBwggMZ-139" value="" style="rounded=0;whiteSpace=wrap;html=1;fillColor=#f8cecc;strokeColor=#b85450;" vertex="1" parent="1">
          <mxGeometry x="500" y="170" width="10" height="10" as="geometry" />
        </mxCell>
        <mxCell id="BdziZfPDJ_LPjfBwggMZ-140" value="" style="rounded=0;whiteSpace=wrap;html=1;fillColor=#f8cecc;strokeColor=#b85450;" vertex="1" parent="1">
          <mxGeometry x="510" y="170" width="10" height="10" as="geometry" />
        </mxCell>
        <mxCell id="BdziZfPDJ_LPjfBwggMZ-141" value="" style="rounded=0;whiteSpace=wrap;html=1;fillColor=#f8cecc;strokeColor=#b85450;" vertex="1" parent="1">
          <mxGeometry x="520" y="170" width="10" height="10" as="geometry" />
        </mxCell>
        <mxCell id="BdziZfPDJ_LPjfBwggMZ-142" value="" style="rounded=0;whiteSpace=wrap;html=1;fillColor=#f8cecc;strokeColor=#b85450;" vertex="1" parent="1">
          <mxGeometry x="530" y="170" width="10" height="10" as="geometry" />
        </mxCell>
        <mxCell id="BdziZfPDJ_LPjfBwggMZ-143" value="" style="rounded=0;whiteSpace=wrap;html=1;fillColor=#f8cecc;strokeColor=#b85450;" vertex="1" parent="1">
          <mxGeometry x="540" y="170" width="10" height="10" as="geometry" />
        </mxCell>
        <mxCell id="BdziZfPDJ_LPjfBwggMZ-144" value="" style="rounded=0;whiteSpace=wrap;html=1;fillColor=#f8cecc;strokeColor=#b85450;" vertex="1" parent="1">
          <mxGeometry x="550" y="170" width="10" height="10" as="geometry" />
        </mxCell>
        <mxCell id="BdziZfPDJ_LPjfBwggMZ-145" value="" style="rounded=0;whiteSpace=wrap;html=1;fillColor=#f8cecc;strokeColor=#b85450;" vertex="1" parent="1">
          <mxGeometry x="480" y="180" width="10" height="10" as="geometry" />
        </mxCell>
        <mxCell id="BdziZfPDJ_LPjfBwggMZ-146" value="" style="rounded=0;whiteSpace=wrap;html=1;fillColor=#f8cecc;strokeColor=#b85450;" vertex="1" parent="1">
          <mxGeometry x="490" y="180" width="10" height="10" as="geometry" />
        </mxCell>
        <mxCell id="BdziZfPDJ_LPjfBwggMZ-147" value="" style="rounded=0;whiteSpace=wrap;html=1;fillColor=#f8cecc;strokeColor=#b85450;" vertex="1" parent="1">
          <mxGeometry x="500" y="180" width="10" height="10" as="geometry" />
        </mxCell>
        <mxCell id="BdziZfPDJ_LPjfBwggMZ-148" value="" style="rounded=0;whiteSpace=wrap;html=1;fillColor=#f8cecc;strokeColor=#b85450;" vertex="1" parent="1">
          <mxGeometry x="510" y="180" width="10" height="10" as="geometry" />
        </mxCell>
        <mxCell id="BdziZfPDJ_LPjfBwggMZ-149" value="" style="rounded=0;whiteSpace=wrap;html=1;fillColor=#f8cecc;strokeColor=#b85450;" vertex="1" parent="1">
          <mxGeometry x="520" y="180" width="10" height="10" as="geometry" />
        </mxCell>
        <mxCell id="BdziZfPDJ_LPjfBwggMZ-150" value="" style="rounded=0;whiteSpace=wrap;html=1;fillColor=#f8cecc;strokeColor=#b85450;" vertex="1" parent="1">
          <mxGeometry x="530" y="180" width="10" height="10" as="geometry" />
        </mxCell>
        <mxCell id="BdziZfPDJ_LPjfBwggMZ-151" value="" style="rounded=0;whiteSpace=wrap;html=1;fillColor=#f8cecc;strokeColor=#b85450;" vertex="1" parent="1">
          <mxGeometry x="540" y="180" width="10" height="10" as="geometry" />
        </mxCell>
        <mxCell id="BdziZfPDJ_LPjfBwggMZ-152" value="" style="rounded=0;whiteSpace=wrap;html=1;fillColor=#f8cecc;strokeColor=#b85450;" vertex="1" parent="1">
          <mxGeometry x="550" y="180" width="10" height="10" as="geometry" />
        </mxCell>
        <mxCell id="BdziZfPDJ_LPjfBwggMZ-153" value="" style="rounded=0;whiteSpace=wrap;html=1;fillColor=#f8cecc;strokeColor=#b85450;" vertex="1" parent="1">
          <mxGeometry x="480" y="190" width="10" height="10" as="geometry" />
        </mxCell>
        <mxCell id="BdziZfPDJ_LPjfBwggMZ-154" value="" style="rounded=0;whiteSpace=wrap;html=1;fillColor=#f8cecc;strokeColor=#b85450;" vertex="1" parent="1">
          <mxGeometry x="490" y="190" width="10" height="10" as="geometry" />
        </mxCell>
        <mxCell id="BdziZfPDJ_LPjfBwggMZ-155" value="" style="rounded=0;whiteSpace=wrap;html=1;fillColor=#f8cecc;strokeColor=#b85450;" vertex="1" parent="1">
          <mxGeometry x="500" y="190" width="10" height="10" as="geometry" />
        </mxCell>
        <mxCell id="BdziZfPDJ_LPjfBwggMZ-156" value="" style="rounded=0;whiteSpace=wrap;html=1;fillColor=#f8cecc;strokeColor=#b85450;" vertex="1" parent="1">
          <mxGeometry x="510" y="190" width="10" height="10" as="geometry" />
        </mxCell>
        <mxCell id="BdziZfPDJ_LPjfBwggMZ-157" value="" style="rounded=0;whiteSpace=wrap;html=1;fillColor=#f8cecc;strokeColor=#b85450;" vertex="1" parent="1">
          <mxGeometry x="520" y="190" width="10" height="10" as="geometry" />
        </mxCell>
        <mxCell id="BdziZfPDJ_LPjfBwggMZ-158" value="" style="rounded=0;whiteSpace=wrap;html=1;fillColor=#f8cecc;strokeColor=#b85450;" vertex="1" parent="1">
          <mxGeometry x="530" y="190" width="10" height="10" as="geometry" />
        </mxCell>
        <mxCell id="BdziZfPDJ_LPjfBwggMZ-159" value="" style="rounded=0;whiteSpace=wrap;html=1;fillColor=#f8cecc;strokeColor=#b85450;" vertex="1" parent="1">
          <mxGeometry x="540" y="190" width="10" height="10" as="geometry" />
        </mxCell>
        <mxCell id="BdziZfPDJ_LPjfBwggMZ-160" value="" style="rounded=0;whiteSpace=wrap;html=1;fillColor=#f8cecc;strokeColor=#b85450;" vertex="1" parent="1">
          <mxGeometry x="550" y="190" width="10" height="10" as="geometry" />
        </mxCell>
        <mxCell id="BdziZfPDJ_LPjfBwggMZ-161" value="" style="rounded=0;whiteSpace=wrap;html=1;fillColor=#f8cecc;strokeColor=#b85450;" vertex="1" parent="1">
          <mxGeometry x="480" y="200" width="10" height="10" as="geometry" />
        </mxCell>
        <mxCell id="BdziZfPDJ_LPjfBwggMZ-162" value="" style="rounded=0;whiteSpace=wrap;html=1;fillColor=#f8cecc;strokeColor=#b85450;" vertex="1" parent="1">
          <mxGeometry x="490" y="200" width="10" height="10" as="geometry" />
        </mxCell>
        <mxCell id="BdziZfPDJ_LPjfBwggMZ-163" value="" style="rounded=0;whiteSpace=wrap;html=1;fillColor=#f8cecc;strokeColor=#b85450;" vertex="1" parent="1">
          <mxGeometry x="500" y="200" width="10" height="10" as="geometry" />
        </mxCell>
        <mxCell id="BdziZfPDJ_LPjfBwggMZ-164" value="" style="rounded=0;whiteSpace=wrap;html=1;fillColor=#f8cecc;strokeColor=#b85450;" vertex="1" parent="1">
          <mxGeometry x="510" y="200" width="10" height="10" as="geometry" />
        </mxCell>
        <mxCell id="BdziZfPDJ_LPjfBwggMZ-165" value="" style="rounded=0;whiteSpace=wrap;html=1;fillColor=#f8cecc;strokeColor=#b85450;" vertex="1" parent="1">
          <mxGeometry x="520" y="200" width="10" height="10" as="geometry" />
        </mxCell>
        <mxCell id="BdziZfPDJ_LPjfBwggMZ-166" value="" style="rounded=0;whiteSpace=wrap;html=1;fillColor=#f8cecc;strokeColor=#b85450;" vertex="1" parent="1">
          <mxGeometry x="530" y="200" width="10" height="10" as="geometry" />
        </mxCell>
        <mxCell id="BdziZfPDJ_LPjfBwggMZ-167" value="" style="rounded=0;whiteSpace=wrap;html=1;fillColor=#f8cecc;strokeColor=#b85450;" vertex="1" parent="1">
          <mxGeometry x="540" y="200" width="10" height="10" as="geometry" />
        </mxCell>
        <mxCell id="BdziZfPDJ_LPjfBwggMZ-168" value="" style="rounded=0;whiteSpace=wrap;html=1;fillColor=#f8cecc;strokeColor=#b85450;" vertex="1" parent="1">
          <mxGeometry x="550" y="200" width="10" height="10" as="geometry" />
        </mxCell>
        <mxCell id="BdziZfPDJ_LPjfBwggMZ-169" value="" style="rounded=0;whiteSpace=wrap;html=1;fillColor=#f8cecc;strokeColor=#b85450;" vertex="1" parent="1">
          <mxGeometry x="480" y="210" width="10" height="10" as="geometry" />
        </mxCell>
        <mxCell id="BdziZfPDJ_LPjfBwggMZ-170" value="" style="rounded=0;whiteSpace=wrap;html=1;fillColor=#f8cecc;strokeColor=#b85450;" vertex="1" parent="1">
          <mxGeometry x="490" y="210" width="10" height="10" as="geometry" />
        </mxCell>
        <mxCell id="BdziZfPDJ_LPjfBwggMZ-171" value="" style="rounded=0;whiteSpace=wrap;html=1;fillColor=#f8cecc;strokeColor=#b85450;" vertex="1" parent="1">
          <mxGeometry x="500" y="210" width="10" height="10" as="geometry" />
        </mxCell>
        <mxCell id="BdziZfPDJ_LPjfBwggMZ-172" value="" style="rounded=0;whiteSpace=wrap;html=1;fillColor=#f8cecc;strokeColor=#b85450;" vertex="1" parent="1">
          <mxGeometry x="510" y="210" width="10" height="10" as="geometry" />
        </mxCell>
        <mxCell id="BdziZfPDJ_LPjfBwggMZ-173" value="" style="rounded=0;whiteSpace=wrap;html=1;fillColor=#f8cecc;strokeColor=#b85450;" vertex="1" parent="1">
          <mxGeometry x="520" y="210" width="10" height="10" as="geometry" />
        </mxCell>
        <mxCell id="BdziZfPDJ_LPjfBwggMZ-174" value="" style="rounded=0;whiteSpace=wrap;html=1;fillColor=#f8cecc;strokeColor=#b85450;" vertex="1" parent="1">
          <mxGeometry x="530" y="210" width="10" height="10" as="geometry" />
        </mxCell>
        <mxCell id="BdziZfPDJ_LPjfBwggMZ-175" value="" style="rounded=0;whiteSpace=wrap;html=1;fillColor=#f8cecc;strokeColor=#b85450;" vertex="1" parent="1">
          <mxGeometry x="540" y="210" width="10" height="10" as="geometry" />
        </mxCell>
        <mxCell id="BdziZfPDJ_LPjfBwggMZ-176" value="" style="rounded=0;whiteSpace=wrap;html=1;fillColor=#f8cecc;strokeColor=#b85450;" vertex="1" parent="1">
          <mxGeometry x="550" y="210" width="10" height="10" as="geometry" />
        </mxCell>
        <mxCell id="BdziZfPDJ_LPjfBwggMZ-177" value="" style="rounded=0;whiteSpace=wrap;html=1;fillColor=#f8cecc;strokeColor=#b85450;" vertex="1" parent="1">
          <mxGeometry x="480" y="220" width="10" height="10" as="geometry" />
        </mxCell>
        <mxCell id="BdziZfPDJ_LPjfBwggMZ-178" value="" style="rounded=0;whiteSpace=wrap;html=1;fillColor=#f8cecc;strokeColor=#b85450;" vertex="1" parent="1">
          <mxGeometry x="490" y="220" width="10" height="10" as="geometry" />
        </mxCell>
        <mxCell id="BdziZfPDJ_LPjfBwggMZ-179" value="" style="rounded=0;whiteSpace=wrap;html=1;fillColor=#f8cecc;strokeColor=#b85450;" vertex="1" parent="1">
          <mxGeometry x="500" y="220" width="10" height="10" as="geometry" />
        </mxCell>
        <mxCell id="BdziZfPDJ_LPjfBwggMZ-180" value="" style="rounded=0;whiteSpace=wrap;html=1;fillColor=#f8cecc;strokeColor=#b85450;" vertex="1" parent="1">
          <mxGeometry x="510" y="220" width="10" height="10" as="geometry" />
        </mxCell>
        <mxCell id="BdziZfPDJ_LPjfBwggMZ-181" value="" style="rounded=0;whiteSpace=wrap;html=1;fillColor=#f8cecc;strokeColor=#b85450;" vertex="1" parent="1">
          <mxGeometry x="520" y="220" width="10" height="10" as="geometry" />
        </mxCell>
        <mxCell id="BdziZfPDJ_LPjfBwggMZ-182" value="" style="rounded=0;whiteSpace=wrap;html=1;fillColor=#f8cecc;strokeColor=#b85450;" vertex="1" parent="1">
          <mxGeometry x="530" y="220" width="10" height="10" as="geometry" />
        </mxCell>
        <mxCell id="BdziZfPDJ_LPjfBwggMZ-183" value="" style="rounded=0;whiteSpace=wrap;html=1;fillColor=#f8cecc;strokeColor=#b85450;" vertex="1" parent="1">
          <mxGeometry x="540" y="220" width="10" height="10" as="geometry" />
        </mxCell>
        <mxCell id="BdziZfPDJ_LPjfBwggMZ-184" value="" style="rounded=0;whiteSpace=wrap;html=1;fillColor=#f8cecc;strokeColor=#b85450;" vertex="1" parent="1">
          <mxGeometry x="550" y="220" width="10" height="10" as="geometry" />
        </mxCell>
        <mxCell id="BdziZfPDJ_LPjfBwggMZ-185" value="" style="rounded=0;whiteSpace=wrap;html=1;fillColor=#f8cecc;strokeColor=#b85450;" vertex="1" parent="1">
          <mxGeometry x="480" y="230" width="10" height="10" as="geometry" />
        </mxCell>
        <mxCell id="BdziZfPDJ_LPjfBwggMZ-186" value="" style="rounded=0;whiteSpace=wrap;html=1;fillColor=#f8cecc;strokeColor=#b85450;" vertex="1" parent="1">
          <mxGeometry x="490" y="230" width="10" height="10" as="geometry" />
        </mxCell>
        <mxCell id="BdziZfPDJ_LPjfBwggMZ-187" value="" style="rounded=0;whiteSpace=wrap;html=1;fillColor=#f8cecc;strokeColor=#b85450;" vertex="1" parent="1">
          <mxGeometry x="500" y="230" width="10" height="10" as="geometry" />
        </mxCell>
        <mxCell id="BdziZfPDJ_LPjfBwggMZ-188" value="" style="rounded=0;whiteSpace=wrap;html=1;fillColor=#f8cecc;strokeColor=#b85450;" vertex="1" parent="1">
          <mxGeometry x="510" y="230" width="10" height="10" as="geometry" />
        </mxCell>
        <mxCell id="BdziZfPDJ_LPjfBwggMZ-189" value="" style="rounded=0;whiteSpace=wrap;html=1;fillColor=#f8cecc;strokeColor=#b85450;" vertex="1" parent="1">
          <mxGeometry x="520" y="230" width="10" height="10" as="geometry" />
        </mxCell>
        <mxCell id="BdziZfPDJ_LPjfBwggMZ-190" value="" style="rounded=0;whiteSpace=wrap;html=1;fillColor=#f8cecc;strokeColor=#b85450;" vertex="1" parent="1">
          <mxGeometry x="530" y="230" width="10" height="10" as="geometry" />
        </mxCell>
        <mxCell id="BdziZfPDJ_LPjfBwggMZ-191" value="" style="rounded=0;whiteSpace=wrap;html=1;fillColor=#f8cecc;strokeColor=#b85450;" vertex="1" parent="1">
          <mxGeometry x="540" y="230" width="10" height="10" as="geometry" />
        </mxCell>
        <mxCell id="BdziZfPDJ_LPjfBwggMZ-192" value="" style="rounded=0;whiteSpace=wrap;html=1;fillColor=#f8cecc;strokeColor=#b85450;" vertex="1" parent="1">
          <mxGeometry x="550" y="230" width="10" height="10" as="geometry" />
        </mxCell>
        <mxCell id="BdziZfPDJ_LPjfBwggMZ-193" value="" style="rounded=0;whiteSpace=wrap;html=1;fillColor=#dae8fc;strokeColor=#6c8ebf;" vertex="1" parent="1">
          <mxGeometry x="270" y="280" width="10" height="10" as="geometry" />
        </mxCell>
        <mxCell id="BdziZfPDJ_LPjfBwggMZ-194" value="" style="rounded=0;whiteSpace=wrap;html=1;fillColor=#eeeeee;strokeColor=#36393d;" vertex="1" parent="1">
          <mxGeometry x="280" y="280" width="10" height="10" as="geometry" />
        </mxCell>
        <mxCell id="BdziZfPDJ_LPjfBwggMZ-195" value="" style="rounded=0;whiteSpace=wrap;html=1;fillColor=#dae8fc;strokeColor=#6c8ebf;" vertex="1" parent="1">
          <mxGeometry x="290" y="280" width="10" height="10" as="geometry" />
        </mxCell>
        <mxCell id="BdziZfPDJ_LPjfBwggMZ-196" value="" style="rounded=0;whiteSpace=wrap;html=1;fillColor=#dae8fc;strokeColor=#6c8ebf;" vertex="1" parent="1">
          <mxGeometry x="300" y="280" width="10" height="10" as="geometry" />
        </mxCell>
        <mxCell id="BdziZfPDJ_LPjfBwggMZ-197" value="" style="rounded=0;whiteSpace=wrap;html=1;fillColor=#dae8fc;strokeColor=#6c8ebf;" vertex="1" parent="1">
          <mxGeometry x="310" y="280" width="10" height="10" as="geometry" />
        </mxCell>
        <mxCell id="BdziZfPDJ_LPjfBwggMZ-198" value="" style="rounded=0;whiteSpace=wrap;html=1;fillColor=#eeeeee;strokeColor=#36393d;" vertex="1" parent="1">
          <mxGeometry x="320" y="280" width="10" height="10" as="geometry" />
        </mxCell>
        <mxCell id="BdziZfPDJ_LPjfBwggMZ-199" value="" style="rounded=0;whiteSpace=wrap;html=1;fillColor=#dae8fc;strokeColor=#6c8ebf;" vertex="1" parent="1">
          <mxGeometry x="330" y="280" width="10" height="10" as="geometry" />
        </mxCell>
        <mxCell id="BdziZfPDJ_LPjfBwggMZ-200" value="" style="rounded=0;whiteSpace=wrap;html=1;fillColor=#dae8fc;strokeColor=#6c8ebf;" vertex="1" parent="1">
          <mxGeometry x="340" y="280" width="10" height="10" as="geometry" />
        </mxCell>
        <mxCell id="BdziZfPDJ_LPjfBwggMZ-201" value="" style="rounded=0;whiteSpace=wrap;html=1;fillColor=#eeeeee;strokeColor=#36393d;" vertex="1" parent="1">
          <mxGeometry x="270" y="290" width="10" height="10" as="geometry" />
        </mxCell>
        <mxCell id="BdziZfPDJ_LPjfBwggMZ-202" value="" style="rounded=0;whiteSpace=wrap;html=1;fillColor=#eeeeee;strokeColor=#36393d;" vertex="1" parent="1">
          <mxGeometry x="280" y="290" width="10" height="10" as="geometry" />
        </mxCell>
        <mxCell id="BdziZfPDJ_LPjfBwggMZ-203" value="" style="rounded=0;whiteSpace=wrap;html=1;fillColor=#dae8fc;strokeColor=#6c8ebf;" vertex="1" parent="1">
          <mxGeometry x="290" y="290" width="10" height="10" as="geometry" />
        </mxCell>
        <mxCell id="BdziZfPDJ_LPjfBwggMZ-204" value="" style="rounded=0;whiteSpace=wrap;html=1;fillColor=#eeeeee;strokeColor=#36393d;" vertex="1" parent="1">
          <mxGeometry x="300" y="290" width="10" height="10" as="geometry" />
        </mxCell>
        <mxCell id="BdziZfPDJ_LPjfBwggMZ-205" value="" style="rounded=0;whiteSpace=wrap;html=1;fillColor=#dae8fc;strokeColor=#6c8ebf;" vertex="1" parent="1">
          <mxGeometry x="310" y="290" width="10" height="10" as="geometry" />
        </mxCell>
        <mxCell id="BdziZfPDJ_LPjfBwggMZ-206" value="" style="rounded=0;whiteSpace=wrap;html=1;fillColor=#eeeeee;strokeColor=#36393d;" vertex="1" parent="1">
          <mxGeometry x="320" y="290" width="10" height="10" as="geometry" />
        </mxCell>
        <mxCell id="BdziZfPDJ_LPjfBwggMZ-207" value="" style="rounded=0;whiteSpace=wrap;html=1;fillColor=#dae8fc;strokeColor=#6c8ebf;" vertex="1" parent="1">
          <mxGeometry x="330" y="290" width="10" height="10" as="geometry" />
        </mxCell>
        <mxCell id="BdziZfPDJ_LPjfBwggMZ-208" value="" style="rounded=0;whiteSpace=wrap;html=1;fillColor=#eeeeee;strokeColor=#36393d;" vertex="1" parent="1">
          <mxGeometry x="340" y="290" width="10" height="10" as="geometry" />
        </mxCell>
        <mxCell id="BdziZfPDJ_LPjfBwggMZ-209" value="" style="rounded=0;whiteSpace=wrap;html=1;fillColor=#dae8fc;strokeColor=#6c8ebf;" vertex="1" parent="1">
          <mxGeometry x="270" y="300" width="10" height="10" as="geometry" />
        </mxCell>
        <mxCell id="BdziZfPDJ_LPjfBwggMZ-210" value="" style="rounded=0;whiteSpace=wrap;html=1;fillColor=#dae8fc;strokeColor=#6c8ebf;" vertex="1" parent="1">
          <mxGeometry x="280" y="300" width="10" height="10" as="geometry" />
        </mxCell>
        <mxCell id="BdziZfPDJ_LPjfBwggMZ-211" value="" style="rounded=0;whiteSpace=wrap;html=1;fillColor=#eeeeee;strokeColor=#36393d;" vertex="1" parent="1">
          <mxGeometry x="290" y="300" width="10" height="10" as="geometry" />
        </mxCell>
        <mxCell id="BdziZfPDJ_LPjfBwggMZ-212" value="" style="rounded=0;whiteSpace=wrap;html=1;fillColor=#dae8fc;strokeColor=#6c8ebf;" vertex="1" parent="1">
          <mxGeometry x="300" y="300" width="10" height="10" as="geometry" />
        </mxCell>
        <mxCell id="BdziZfPDJ_LPjfBwggMZ-213" value="" style="rounded=0;whiteSpace=wrap;html=1;fillColor=#eeeeee;strokeColor=#36393d;" vertex="1" parent="1">
          <mxGeometry x="310" y="300" width="10" height="10" as="geometry" />
        </mxCell>
        <mxCell id="BdziZfPDJ_LPjfBwggMZ-214" value="" style="rounded=0;whiteSpace=wrap;html=1;fillColor=#dae8fc;strokeColor=#6c8ebf;" vertex="1" parent="1">
          <mxGeometry x="320" y="300" width="10" height="10" as="geometry" />
        </mxCell>
        <mxCell id="BdziZfPDJ_LPjfBwggMZ-215" value="" style="rounded=0;whiteSpace=wrap;html=1;fillColor=#eeeeee;strokeColor=#36393d;" vertex="1" parent="1">
          <mxGeometry x="330" y="300" width="10" height="10" as="geometry" />
        </mxCell>
        <mxCell id="BdziZfPDJ_LPjfBwggMZ-216" value="" style="rounded=0;whiteSpace=wrap;html=1;fillColor=#dae8fc;strokeColor=#6c8ebf;" vertex="1" parent="1">
          <mxGeometry x="340" y="300" width="10" height="10" as="geometry" />
        </mxCell>
        <mxCell id="BdziZfPDJ_LPjfBwggMZ-217" value="" style="rounded=0;whiteSpace=wrap;html=1;fillColor=#eeeeee;strokeColor=#36393d;" vertex="1" parent="1">
          <mxGeometry x="270" y="310" width="10" height="10" as="geometry" />
        </mxCell>
        <mxCell id="BdziZfPDJ_LPjfBwggMZ-218" value="" style="rounded=0;whiteSpace=wrap;html=1;fillColor=#dae8fc;strokeColor=#6c8ebf;" vertex="1" parent="1">
          <mxGeometry x="280" y="310" width="10" height="10" as="geometry" />
        </mxCell>
        <mxCell id="BdziZfPDJ_LPjfBwggMZ-219" value="" style="rounded=0;whiteSpace=wrap;html=1;fillColor=#eeeeee;strokeColor=#36393d;" vertex="1" parent="1">
          <mxGeometry x="290" y="310" width="10" height="10" as="geometry" />
        </mxCell>
        <mxCell id="BdziZfPDJ_LPjfBwggMZ-220" value="" style="rounded=0;whiteSpace=wrap;html=1;fillColor=#dae8fc;strokeColor=#6c8ebf;" vertex="1" parent="1">
          <mxGeometry x="300" y="310" width="10" height="10" as="geometry" />
        </mxCell>
        <mxCell id="BdziZfPDJ_LPjfBwggMZ-221" value="" style="rounded=0;whiteSpace=wrap;html=1;fillColor=#dae8fc;strokeColor=#6c8ebf;" vertex="1" parent="1">
          <mxGeometry x="310" y="310" width="10" height="10" as="geometry" />
        </mxCell>
        <mxCell id="BdziZfPDJ_LPjfBwggMZ-222" value="" style="rounded=0;whiteSpace=wrap;html=1;fillColor=#eeeeee;strokeColor=#36393d;" vertex="1" parent="1">
          <mxGeometry x="320" y="310" width="10" height="10" as="geometry" />
        </mxCell>
        <mxCell id="BdziZfPDJ_LPjfBwggMZ-223" value="" style="rounded=0;whiteSpace=wrap;html=1;fillColor=#dae8fc;strokeColor=#6c8ebf;" vertex="1" parent="1">
          <mxGeometry x="330" y="310" width="10" height="10" as="geometry" />
        </mxCell>
        <mxCell id="BdziZfPDJ_LPjfBwggMZ-224" value="" style="rounded=0;whiteSpace=wrap;html=1;fillColor=#dae8fc;strokeColor=#6c8ebf;" vertex="1" parent="1">
          <mxGeometry x="340" y="310" width="10" height="10" as="geometry" />
        </mxCell>
        <mxCell id="BdziZfPDJ_LPjfBwggMZ-225" value="" style="rounded=0;whiteSpace=wrap;html=1;fillColor=#eeeeee;strokeColor=#36393d;" vertex="1" parent="1">
          <mxGeometry x="270" y="320" width="10" height="10" as="geometry" />
        </mxCell>
        <mxCell id="BdziZfPDJ_LPjfBwggMZ-226" value="" style="rounded=0;whiteSpace=wrap;html=1;fillColor=#dae8fc;strokeColor=#6c8ebf;" vertex="1" parent="1">
          <mxGeometry x="280" y="320" width="10" height="10" as="geometry" />
        </mxCell>
        <mxCell id="BdziZfPDJ_LPjfBwggMZ-227" value="" style="rounded=0;whiteSpace=wrap;html=1;fillColor=#dae8fc;strokeColor=#6c8ebf;" vertex="1" parent="1">
          <mxGeometry x="290" y="320" width="10" height="10" as="geometry" />
        </mxCell>
        <mxCell id="BdziZfPDJ_LPjfBwggMZ-228" value="" style="rounded=0;whiteSpace=wrap;html=1;fillColor=#dae8fc;strokeColor=#6c8ebf;" vertex="1" parent="1">
          <mxGeometry x="300" y="320" width="10" height="10" as="geometry" />
        </mxCell>
        <mxCell id="BdziZfPDJ_LPjfBwggMZ-229" value="" style="rounded=0;whiteSpace=wrap;html=1;fillColor=#eeeeee;strokeColor=#36393d;" vertex="1" parent="1">
          <mxGeometry x="310" y="320" width="10" height="10" as="geometry" />
        </mxCell>
        <mxCell id="BdziZfPDJ_LPjfBwggMZ-230" value="" style="rounded=0;whiteSpace=wrap;html=1;fillColor=#dae8fc;strokeColor=#6c8ebf;" vertex="1" parent="1">
          <mxGeometry x="320" y="320" width="10" height="10" as="geometry" />
        </mxCell>
        <mxCell id="BdziZfPDJ_LPjfBwggMZ-231" value="" style="rounded=0;whiteSpace=wrap;html=1;fillColor=#dae8fc;strokeColor=#6c8ebf;" vertex="1" parent="1">
          <mxGeometry x="330" y="320" width="10" height="10" as="geometry" />
        </mxCell>
        <mxCell id="BdziZfPDJ_LPjfBwggMZ-232" value="" style="rounded=0;whiteSpace=wrap;html=1;fillColor=#eeeeee;strokeColor=#36393d;" vertex="1" parent="1">
          <mxGeometry x="340" y="320" width="10" height="10" as="geometry" />
        </mxCell>
        <mxCell id="BdziZfPDJ_LPjfBwggMZ-233" value="" style="rounded=0;whiteSpace=wrap;html=1;fillColor=#dae8fc;strokeColor=#6c8ebf;" vertex="1" parent="1">
          <mxGeometry x="270" y="330" width="10" height="10" as="geometry" />
        </mxCell>
        <mxCell id="BdziZfPDJ_LPjfBwggMZ-234" value="" style="rounded=0;whiteSpace=wrap;html=1;fillColor=#eeeeee;strokeColor=#36393d;" vertex="1" parent="1">
          <mxGeometry x="280" y="330" width="10" height="10" as="geometry" />
        </mxCell>
        <mxCell id="BdziZfPDJ_LPjfBwggMZ-235" value="" style="rounded=0;whiteSpace=wrap;html=1;fillColor=#dae8fc;strokeColor=#6c8ebf;" vertex="1" parent="1">
          <mxGeometry x="290" y="330" width="10" height="10" as="geometry" />
        </mxCell>
        <mxCell id="BdziZfPDJ_LPjfBwggMZ-236" value="" style="rounded=0;whiteSpace=wrap;html=1;fillColor=#eeeeee;strokeColor=#36393d;" vertex="1" parent="1">
          <mxGeometry x="300" y="330" width="10" height="10" as="geometry" />
        </mxCell>
        <mxCell id="BdziZfPDJ_LPjfBwggMZ-237" value="" style="rounded=0;whiteSpace=wrap;html=1;fillColor=#dae8fc;strokeColor=#6c8ebf;" vertex="1" parent="1">
          <mxGeometry x="310" y="330" width="10" height="10" as="geometry" />
        </mxCell>
        <mxCell id="BdziZfPDJ_LPjfBwggMZ-238" value="" style="rounded=0;whiteSpace=wrap;html=1;fillColor=#eeeeee;strokeColor=#36393d;" vertex="1" parent="1">
          <mxGeometry x="320" y="330" width="10" height="10" as="geometry" />
        </mxCell>
        <mxCell id="BdziZfPDJ_LPjfBwggMZ-239" value="" style="rounded=0;whiteSpace=wrap;html=1;fillColor=#dae8fc;strokeColor=#6c8ebf;" vertex="1" parent="1">
          <mxGeometry x="330" y="330" width="10" height="10" as="geometry" />
        </mxCell>
        <mxCell id="BdziZfPDJ_LPjfBwggMZ-240" value="" style="rounded=0;whiteSpace=wrap;html=1;fillColor=#dae8fc;strokeColor=#6c8ebf;" vertex="1" parent="1">
          <mxGeometry x="340" y="330" width="10" height="10" as="geometry" />
        </mxCell>
        <mxCell id="BdziZfPDJ_LPjfBwggMZ-241" value="" style="rounded=0;whiteSpace=wrap;html=1;fillColor=#eeeeee;strokeColor=#36393d;" vertex="1" parent="1">
          <mxGeometry x="270" y="340" width="10" height="10" as="geometry" />
        </mxCell>
        <mxCell id="BdziZfPDJ_LPjfBwggMZ-242" value="" style="rounded=0;whiteSpace=wrap;html=1;fillColor=#dae8fc;strokeColor=#6c8ebf;" vertex="1" parent="1">
          <mxGeometry x="280" y="340" width="10" height="10" as="geometry" />
        </mxCell>
        <mxCell id="BdziZfPDJ_LPjfBwggMZ-243" value="" style="rounded=0;whiteSpace=wrap;html=1;fillColor=#dae8fc;strokeColor=#6c8ebf;" vertex="1" parent="1">
          <mxGeometry x="290" y="340" width="10" height="10" as="geometry" />
        </mxCell>
        <mxCell id="BdziZfPDJ_LPjfBwggMZ-244" value="" style="rounded=0;whiteSpace=wrap;html=1;fillColor=#eeeeee;strokeColor=#36393d;" vertex="1" parent="1">
          <mxGeometry x="300" y="340" width="10" height="10" as="geometry" />
        </mxCell>
        <mxCell id="BdziZfPDJ_LPjfBwggMZ-245" value="" style="rounded=0;whiteSpace=wrap;html=1;fillColor=#dae8fc;strokeColor=#6c8ebf;" vertex="1" parent="1">
          <mxGeometry x="310" y="340" width="10" height="10" as="geometry" />
        </mxCell>
        <mxCell id="BdziZfPDJ_LPjfBwggMZ-246" value="" style="rounded=0;whiteSpace=wrap;html=1;fillColor=#eeeeee;strokeColor=#36393d;" vertex="1" parent="1">
          <mxGeometry x="320" y="340" width="10" height="10" as="geometry" />
        </mxCell>
        <mxCell id="BdziZfPDJ_LPjfBwggMZ-247" value="" style="rounded=0;whiteSpace=wrap;html=1;fillColor=#dae8fc;strokeColor=#6c8ebf;" vertex="1" parent="1">
          <mxGeometry x="330" y="340" width="10" height="10" as="geometry" />
        </mxCell>
        <mxCell id="BdziZfPDJ_LPjfBwggMZ-248" value="" style="rounded=0;whiteSpace=wrap;html=1;fillColor=#eeeeee;strokeColor=#36393d;" vertex="1" parent="1">
          <mxGeometry x="340" y="340" width="10" height="10" as="geometry" />
        </mxCell>
        <mxCell id="BdziZfPDJ_LPjfBwggMZ-249" value="" style="rounded=0;whiteSpace=wrap;html=1;fillColor=#dae8fc;strokeColor=#6c8ebf;" vertex="1" parent="1">
          <mxGeometry x="270" y="350" width="10" height="10" as="geometry" />
        </mxCell>
        <mxCell id="BdziZfPDJ_LPjfBwggMZ-250" value="" style="rounded=0;whiteSpace=wrap;html=1;fillColor=#eeeeee;strokeColor=#36393d;" vertex="1" parent="1">
          <mxGeometry x="280" y="350" width="10" height="10" as="geometry" />
        </mxCell>
        <mxCell id="BdziZfPDJ_LPjfBwggMZ-251" value="" style="rounded=0;whiteSpace=wrap;html=1;fillColor=#dae8fc;strokeColor=#6c8ebf;" vertex="1" parent="1">
          <mxGeometry x="290" y="350" width="10" height="10" as="geometry" />
        </mxCell>
        <mxCell id="BdziZfPDJ_LPjfBwggMZ-252" value="" style="rounded=0;whiteSpace=wrap;html=1;fillColor=#eeeeee;strokeColor=#36393d;" vertex="1" parent="1">
          <mxGeometry x="300" y="350" width="10" height="10" as="geometry" />
        </mxCell>
        <mxCell id="BdziZfPDJ_LPjfBwggMZ-253" value="" style="rounded=0;whiteSpace=wrap;html=1;fillColor=#dae8fc;strokeColor=#6c8ebf;" vertex="1" parent="1">
          <mxGeometry x="310" y="350" width="10" height="10" as="geometry" />
        </mxCell>
        <mxCell id="BdziZfPDJ_LPjfBwggMZ-254" value="" style="rounded=0;whiteSpace=wrap;html=1;fillColor=#dae8fc;strokeColor=#6c8ebf;" vertex="1" parent="1">
          <mxGeometry x="320" y="350" width="10" height="10" as="geometry" />
        </mxCell>
        <mxCell id="BdziZfPDJ_LPjfBwggMZ-255" value="" style="rounded=0;whiteSpace=wrap;html=1;fillColor=#eeeeee;strokeColor=#36393d;" vertex="1" parent="1">
          <mxGeometry x="330" y="350" width="10" height="10" as="geometry" />
        </mxCell>
        <mxCell id="BdziZfPDJ_LPjfBwggMZ-256" value="" style="rounded=0;whiteSpace=wrap;html=1;fillColor=#dae8fc;strokeColor=#6c8ebf;" vertex="1" parent="1">
          <mxGeometry x="340" y="350" width="10" height="10" as="geometry" />
        </mxCell>
        <mxCell id="BdziZfPDJ_LPjfBwggMZ-257" value="" style="rounded=0;whiteSpace=wrap;html=1;fillColor=#dae8fc;strokeColor=#6c8ebf;" vertex="1" parent="1">
          <mxGeometry x="390" y="280" width="10" height="10" as="geometry" />
        </mxCell>
        <mxCell id="BdziZfPDJ_LPjfBwggMZ-258" value="" style="rounded=0;whiteSpace=wrap;html=1;fillColor=#dae8fc;strokeColor=#6c8ebf;" vertex="1" parent="1">
          <mxGeometry x="390" y="290" width="10" height="10" as="geometry" />
        </mxCell>
        <mxCell id="BdziZfPDJ_LPjfBwggMZ-259" value="" style="rounded=0;whiteSpace=wrap;html=1;fillColor=#dae8fc;strokeColor=#6c8ebf;" vertex="1" parent="1">
          <mxGeometry x="390" y="300" width="10" height="10" as="geometry" />
        </mxCell>
        <mxCell id="BdziZfPDJ_LPjfBwggMZ-260" value="" style="rounded=0;whiteSpace=wrap;html=1;fillColor=#dae8fc;strokeColor=#6c8ebf;" vertex="1" parent="1">
          <mxGeometry x="390" y="310" width="10" height="10" as="geometry" />
        </mxCell>
        <mxCell id="BdziZfPDJ_LPjfBwggMZ-261" value="" style="rounded=0;whiteSpace=wrap;html=1;fillColor=#dae8fc;strokeColor=#6c8ebf;" vertex="1" parent="1">
          <mxGeometry x="390" y="320" width="10" height="10" as="geometry" />
        </mxCell>
        <mxCell id="BdziZfPDJ_LPjfBwggMZ-262" value="" style="rounded=0;whiteSpace=wrap;html=1;fillColor=#dae8fc;strokeColor=#6c8ebf;" vertex="1" parent="1">
          <mxGeometry x="390" y="330" width="10" height="10" as="geometry" />
        </mxCell>
        <mxCell id="BdziZfPDJ_LPjfBwggMZ-263" value="" style="rounded=0;whiteSpace=wrap;html=1;fillColor=#dae8fc;strokeColor=#6c8ebf;" vertex="1" parent="1">
          <mxGeometry x="390" y="340" width="10" height="10" as="geometry" />
        </mxCell>
        <mxCell id="BdziZfPDJ_LPjfBwggMZ-264" value="" style="rounded=0;whiteSpace=wrap;html=1;fillColor=#dae8fc;strokeColor=#6c8ebf;" vertex="1" parent="1">
          <mxGeometry x="390" y="350" width="10" height="10" as="geometry" />
        </mxCell>
        <mxCell id="BdziZfPDJ_LPjfBwggMZ-265" value="" style="rounded=0;whiteSpace=wrap;html=1;fillColor=#e1d5e7;strokeColor=#9673a6;" vertex="1" parent="1">
          <mxGeometry x="420" y="280" width="10" height="10" as="geometry" />
        </mxCell>
        <mxCell id="BdziZfPDJ_LPjfBwggMZ-266" value="" style="rounded=0;whiteSpace=wrap;html=1;fillColor=#e1d5e7;strokeColor=#9673a6;" vertex="1" parent="1">
          <mxGeometry x="420" y="290" width="10" height="10" as="geometry" />
        </mxCell>
        <mxCell id="BdziZfPDJ_LPjfBwggMZ-267" value="" style="rounded=0;whiteSpace=wrap;html=1;fillColor=#e1d5e7;strokeColor=#9673a6;" vertex="1" parent="1">
          <mxGeometry x="420" y="300" width="10" height="10" as="geometry" />
        </mxCell>
        <mxCell id="BdziZfPDJ_LPjfBwggMZ-268" value="" style="rounded=0;whiteSpace=wrap;html=1;fillColor=#e1d5e7;strokeColor=#9673a6;" vertex="1" parent="1">
          <mxGeometry x="420" y="310" width="10" height="10" as="geometry" />
        </mxCell>
        <mxCell id="BdziZfPDJ_LPjfBwggMZ-269" value="" style="rounded=0;whiteSpace=wrap;html=1;fillColor=#e1d5e7;strokeColor=#9673a6;" vertex="1" parent="1">
          <mxGeometry x="420" y="320" width="10" height="10" as="geometry" />
        </mxCell>
        <mxCell id="BdziZfPDJ_LPjfBwggMZ-270" value="" style="rounded=0;whiteSpace=wrap;html=1;fillColor=#e1d5e7;strokeColor=#9673a6;" vertex="1" parent="1">
          <mxGeometry x="420" y="330" width="10" height="10" as="geometry" />
        </mxCell>
        <mxCell id="BdziZfPDJ_LPjfBwggMZ-271" value="" style="rounded=0;whiteSpace=wrap;html=1;fillColor=#e1d5e7;strokeColor=#9673a6;" vertex="1" parent="1">
          <mxGeometry x="420" y="340" width="10" height="10" as="geometry" />
        </mxCell>
        <mxCell id="BdziZfPDJ_LPjfBwggMZ-272" value="" style="rounded=0;whiteSpace=wrap;html=1;fillColor=#e1d5e7;strokeColor=#9673a6;" vertex="1" parent="1">
          <mxGeometry x="420" y="350" width="10" height="10" as="geometry" />
        </mxCell>
        <mxCell id="BdziZfPDJ_LPjfBwggMZ-273" value="" style="rounded=0;whiteSpace=wrap;html=1;fillColor=#e1d5e7;strokeColor=#9673a6;" vertex="1" parent="1">
          <mxGeometry x="430" y="280" width="10" height="10" as="geometry" />
        </mxCell>
        <mxCell id="BdziZfPDJ_LPjfBwggMZ-274" value="" style="rounded=0;whiteSpace=wrap;html=1;fillColor=#e1d5e7;strokeColor=#9673a6;" vertex="1" parent="1">
          <mxGeometry x="430" y="290" width="10" height="10" as="geometry" />
        </mxCell>
        <mxCell id="BdziZfPDJ_LPjfBwggMZ-275" value="" style="rounded=0;whiteSpace=wrap;html=1;fillColor=#e1d5e7;strokeColor=#9673a6;" vertex="1" parent="1">
          <mxGeometry x="430" y="300" width="10" height="10" as="geometry" />
        </mxCell>
        <mxCell id="BdziZfPDJ_LPjfBwggMZ-276" value="" style="rounded=0;whiteSpace=wrap;html=1;fillColor=#e1d5e7;strokeColor=#9673a6;" vertex="1" parent="1">
          <mxGeometry x="430" y="310" width="10" height="10" as="geometry" />
        </mxCell>
        <mxCell id="BdziZfPDJ_LPjfBwggMZ-277" value="" style="rounded=0;whiteSpace=wrap;html=1;fillColor=#e1d5e7;strokeColor=#9673a6;" vertex="1" parent="1">
          <mxGeometry x="430" y="320" width="10" height="10" as="geometry" />
        </mxCell>
        <mxCell id="BdziZfPDJ_LPjfBwggMZ-278" value="" style="rounded=0;whiteSpace=wrap;html=1;fillColor=#e1d5e7;strokeColor=#9673a6;" vertex="1" parent="1">
          <mxGeometry x="430" y="330" width="10" height="10" as="geometry" />
        </mxCell>
        <mxCell id="BdziZfPDJ_LPjfBwggMZ-279" value="" style="rounded=0;whiteSpace=wrap;html=1;fillColor=#e1d5e7;strokeColor=#9673a6;" vertex="1" parent="1">
          <mxGeometry x="430" y="340" width="10" height="10" as="geometry" />
        </mxCell>
        <mxCell id="BdziZfPDJ_LPjfBwggMZ-280" value="" style="rounded=0;whiteSpace=wrap;html=1;fillColor=#e1d5e7;strokeColor=#9673a6;" vertex="1" parent="1">
          <mxGeometry x="430" y="350" width="10" height="10" as="geometry" />
        </mxCell>
        <mxCell id="BdziZfPDJ_LPjfBwggMZ-281" value="" style="rounded=0;whiteSpace=wrap;html=1;fillColor=#dae8fc;strokeColor=#6c8ebf;" vertex="1" parent="1">
          <mxGeometry x="400" y="280" width="10" height="10" as="geometry" />
        </mxCell>
        <mxCell id="BdziZfPDJ_LPjfBwggMZ-282" value="" style="rounded=0;whiteSpace=wrap;html=1;fillColor=#dae8fc;strokeColor=#6c8ebf;" vertex="1" parent="1">
          <mxGeometry x="400" y="290" width="10" height="10" as="geometry" />
        </mxCell>
        <mxCell id="BdziZfPDJ_LPjfBwggMZ-283" value="" style="rounded=0;whiteSpace=wrap;html=1;fillColor=#dae8fc;strokeColor=#6c8ebf;" vertex="1" parent="1">
          <mxGeometry x="400" y="300" width="10" height="10" as="geometry" />
        </mxCell>
        <mxCell id="BdziZfPDJ_LPjfBwggMZ-284" value="" style="rounded=0;whiteSpace=wrap;html=1;fillColor=#dae8fc;strokeColor=#6c8ebf;" vertex="1" parent="1">
          <mxGeometry x="400" y="310" width="10" height="10" as="geometry" />
        </mxCell>
        <mxCell id="BdziZfPDJ_LPjfBwggMZ-285" value="" style="rounded=0;whiteSpace=wrap;html=1;fillColor=#dae8fc;strokeColor=#6c8ebf;" vertex="1" parent="1">
          <mxGeometry x="400" y="320" width="10" height="10" as="geometry" />
        </mxCell>
        <mxCell id="BdziZfPDJ_LPjfBwggMZ-286" value="" style="rounded=0;whiteSpace=wrap;html=1;fillColor=#dae8fc;strokeColor=#6c8ebf;" vertex="1" parent="1">
          <mxGeometry x="400" y="330" width="10" height="10" as="geometry" />
        </mxCell>
        <mxCell id="BdziZfPDJ_LPjfBwggMZ-287" value="" style="rounded=0;whiteSpace=wrap;html=1;fillColor=#dae8fc;strokeColor=#6c8ebf;" vertex="1" parent="1">
          <mxGeometry x="400" y="340" width="10" height="10" as="geometry" />
        </mxCell>
        <mxCell id="BdziZfPDJ_LPjfBwggMZ-288" value="" style="rounded=0;whiteSpace=wrap;html=1;fillColor=#dae8fc;strokeColor=#6c8ebf;" vertex="1" parent="1">
          <mxGeometry x="400" y="350" width="10" height="10" as="geometry" />
        </mxCell>
        <mxCell id="BdziZfPDJ_LPjfBwggMZ-291" value="" style="shape=flexArrow;endArrow=classic;html=1;rounded=0;width=6.612903225806451;endSize=2.9354838709677415;endWidth=6.352757544224766;fillColor=#fff2cc;gradientColor=#ffd966;strokeColor=#d6b656;" edge="1" parent="1">
          <mxGeometry width="50" height="50" relative="1" as="geometry">
            <mxPoint x="240" y="319.8" as="sourcePoint" />
            <mxPoint x="260" y="319.72" as="targetPoint" />
          </mxGeometry>
        </mxCell>
        <mxCell id="BdziZfPDJ_LPjfBwggMZ-292" value="" style="shape=flexArrow;endArrow=classic;html=1;rounded=0;width=6.612903225806451;endSize=2.9354838709677415;endWidth=6.352757544224766;fillColor=#fff2cc;gradientColor=#ffd966;strokeColor=#d6b656;" edge="1" parent="1">
          <mxGeometry width="50" height="50" relative="1" as="geometry">
            <mxPoint x="360" y="319.8" as="sourcePoint" />
            <mxPoint x="380" y="319.72" as="targetPoint" />
          </mxGeometry>
        </mxCell>
        <mxCell id="BdziZfPDJ_LPjfBwggMZ-293" value="" style="shape=flexArrow;endArrow=classic;html=1;rounded=0;width=6.612903225806451;endSize=2.9354838709677415;endWidth=6.352757544224766;fillColor=#fff2cc;gradientColor=#ffd966;strokeColor=#d6b656;" edge="1" parent="1">
          <mxGeometry width="50" height="50" relative="1" as="geometry">
            <mxPoint x="450" y="320.08" as="sourcePoint" />
            <mxPoint x="470" y="320" as="targetPoint" />
          </mxGeometry>
        </mxCell>
        <mxCell id="BdziZfPDJ_LPjfBwggMZ-294" value="" style="shape=flexArrow;endArrow=classic;html=1;rounded=0;width=6.612903225806451;endSize=2.9354838709677415;endWidth=6.352757544224766;fillColor=#fff2cc;gradientColor=#ffd966;strokeColor=#d6b656;" edge="1" parent="1">
          <mxGeometry width="50" height="50" relative="1" as="geometry">
            <mxPoint x="520" y="250" as="sourcePoint" />
            <mxPoint x="520" y="270" as="targetPoint" />
          </mxGeometry>
        </mxCell>
      </root>
    </mxGraphModel>
  </diagram>
</mxfile>
